<svg width="10" height="14" viewBox="0 0 10 14" fill="none" xmlns="http://www.w3.org/2000/svg">
<g clip-path="url(#clip0_1080_4)">
<path d="M0 1.16667C0 0.522334 0.532995 0 1.19048 0C1.84796 0 2.38095 0.522334 2.38095 1.16667V12.8333C2.38095 13.4777 1.84796 14 1.19048 14C0.532995 14 0 13.4777 0 12.8333V1.16667Z" fill="#B3B3B3"/>
<path d="M7.61719 1.16667C7.61719 0.522334 8.15017 0 8.80766 0C9.46514 0 9.99814 0.522334 9.99814 1.16667V12.8333C9.99814 13.4777 9.46514 14 8.80766 14C8.15017 14 7.61719 13.4777 7.61719 12.8333V1.16667Z" fill="#B3B3B3"/>
</g>
<defs>
<clipPath id="clip0_1080_4">
<rect width="10" height="14" fill="white"/>
</clipPath>
</defs>
</svg>
