<svg width="22" height="22" viewBox="0 0 22 22" fill="none" xmlns="http://www.w3.org/2000/svg">
<g clip-path="url(#clip0_1039_28)">
<path d="M9.3392 2.26114H4.86734C3.54919 2.26114 2.89012 2.26114 2.38666 2.51508C1.94379 2.73846 1.58374 3.09488 1.35809 3.53326C1.10156 4.03165 1.10156 4.68407 1.10156 5.9889V17.1722C1.10156 18.477 1.10156 19.1295 1.35809 19.6278C1.58374 20.0663 1.94379 20.4227 2.38666 20.646C2.89012 20.9 3.54919 20.9 4.86734 20.9H16.1646C17.4828 20.9 18.1419 20.9 18.6454 20.646C19.0882 20.4227 19.4482 20.0663 19.6739 19.6278C19.9305 19.1295 19.9305 18.477 19.9305 17.1722V12.163M14.6349 4.00853L17.9632 7.30345M9.05994 9.52714L16.8837 1.78237C17.8028 0.87251 19.293 0.87251 20.2122 1.78237C21.1314 2.69225 21.1314 4.16743 20.2122 5.07729L12.137 13.0709C11.2407 13.9583 10.7926 14.4019 10.2821 14.7546C9.82898 15.0679 9.34025 15.3272 8.8261 15.5276C8.24677 15.7533 7.62551 15.8774 6.38298 16.1256L5.80878 16.2403L5.86462 15.8533C6.06222 14.4841 6.16102 13.7995 6.38575 13.1603C6.58517 12.5931 6.85761 12.0539 7.1963 11.5556C7.578 10.9941 8.072 10.5051 9.05994 9.52714Z" stroke="#C4C4C4" stroke-width="1.5" stroke-linecap="round" stroke-linejoin="round"/>
</g>
<defs>
<clipPath id="clip0_1039_28">
<rect width="22" height="22" fill="white"/>
</clipPath>
</defs>
</svg>
