<svg width="12" height="14" viewBox="0 0 12 14" fill="none" xmlns="http://www.w3.org/2000/svg">
<g clip-path="url(#clip0_1080_2)">
<path d="M0 12.6022C0 13.105 0.1841 13.5045 0.552301 13.8003C0.755447 13.9334 0.971291 14 1.19983 14C1.37759 14 1.55533 13.9482 1.73309 13.8447L11.3507 8.25357C11.5412 8.13524 11.6999 7.96512 11.8268 7.74326C11.9539 7.52139 12.011 7.26994 11.9983 6.9889C11.9856 6.70787 11.9285 6.46381 11.8268 6.25674C11.7253 6.04966 11.5666 5.87956 11.3507 5.74643L1.73309 0.155309C1.55533 0.0517697 1.37759 0 1.19983 0C0.983982 0 0.768144 0.0665611 0.552301 0.199683C0.1841 0.480719 0 0.880084 0 1.39778V12.6022Z" fill="#B3B3B3"/>
</g>
<defs>
<clipPath id="clip0_1080_2">
<rect width="12" height="14" fill="white"/>
</clipPath>
</defs>
</svg>
