<svg width="22" height="22" viewBox="0 0 22 22" fill="none" xmlns="http://www.w3.org/2000/svg">
<g clip-path="url(#clip0_1039_23)">
<path fill-rule="evenodd" clip-rule="evenodd" d="M8.98951 2.1802e-05H13.0106C13.268 -0.000136147 13.4922 -0.000271675 13.7038 0.0318032C14.5401 0.1585 15.2639 0.653399 15.6551 1.36608C15.7541 1.54647 15.8248 1.74827 15.906 1.97993L16.0389 2.35776C16.0613 2.42173 16.0678 2.43983 16.0731 2.45409C16.2814 3.00027 16.8213 3.36949 17.4334 3.38421C17.4495 3.38459 17.4691 3.38466 17.5406 3.38466H21.1081C21.6007 3.38466 22 3.76349 22 4.23081C22 4.69813 21.6007 5.07696 21.1081 5.07696H0.891887C0.399315 5.07696 0 4.69813 0 4.23081C0 3.76349 0.399315 3.38466 0.891887 3.38466H4.45953C4.53094 3.38466 4.55064 3.38459 4.56674 3.38421C5.17874 3.36949 5.71867 3.00031 5.92691 2.45411C5.93239 2.43976 5.93868 2.42205 5.96126 2.35776L6.09399 1.97996C6.1752 1.74831 6.24598 1.54647 6.34499 1.36608C6.73616 0.653399 7.4599 0.1585 8.29626 0.0318032C8.50795 -0.000271675 8.73216 -0.000136147 8.98951 2.1802e-05ZM7.44208 3.38466C7.50334 3.27069 7.55763 3.15225 7.60432 3.02977C7.6185 2.99257 7.63242 2.95298 7.65027 2.90213L7.76896 2.56432C7.87737 2.25575 7.90235 2.19282 7.92711 2.1477C8.0575 1.91013 8.29875 1.74517 8.57753 1.70293C8.63049 1.69491 8.70125 1.69235 9.04409 1.69235H12.9559C13.2988 1.69235 13.3696 1.69491 13.4225 1.70293C13.7013 1.74517 13.9426 1.91013 14.0731 2.1477C14.0977 2.19282 14.1227 2.25574 14.231 2.56432L14.3497 2.90192L14.3958 3.0298C14.4426 3.15226 14.4967 3.27069 14.558 3.38466H7.44208Z" fill="#C4C4C4"/>
<path d="M3.76231 6.99504C3.72954 6.52875 3.30456 6.17596 2.81307 6.20705C2.32159 6.23812 1.94972 6.64133 1.98248 7.1076L2.53361 14.9506C2.63528 16.3978 2.71741 17.5667 2.91002 18.4841C3.11027 19.4378 3.45088 20.2344 4.15439 20.8589C4.85791 21.4831 5.71834 21.7527 6.73469 21.8787C7.71221 22.0001 8.94704 22.0001 10.4759 22H11.5211C13.0499 22.0001 14.2847 22.0001 15.2623 21.8787C16.2786 21.7527 17.1391 21.4831 17.8426 20.8589C18.5461 20.2344 18.8867 19.4378 19.087 18.4841C19.2796 17.5668 19.3617 16.3978 19.4633 14.9506L20.0145 7.1076C20.0473 6.64133 19.6754 6.23812 19.1839 6.20705C18.6924 6.17596 18.2674 6.52875 18.2347 6.99504L17.6877 14.7787C17.5809 16.2992 17.5047 17.3573 17.3375 18.1535C17.1754 18.9256 16.949 19.3344 16.624 19.623C16.2988 19.9115 15.8539 20.0986 15.0308 20.2007C14.1825 20.306 13.0647 20.3076 11.4584 20.3076H10.5386C8.93229 20.3076 7.8144 20.306 6.96604 20.2007C6.14312 20.0986 5.69818 19.9115 5.37304 19.623C5.0479 19.3344 4.82156 18.9256 4.65942 18.1535C4.49226 17.3573 4.41612 16.2992 4.30926 14.7787L3.76231 6.99504Z" fill="#C4C4C4"/>
<path d="M7.93992 9.02991C8.43006 8.98333 8.86718 9.32269 8.91617 9.78762L9.51077 15.4287C9.55976 15.8937 9.20217 16.3084 8.71199 16.3548C8.22187 16.4013 7.78482 16.0621 7.7358 15.5971L7.14121 9.95606C7.0922 9.49101 7.44981 9.0764 7.93992 9.02991Z" fill="#C4C4C4"/>
<path d="M14.0636 9.02991C14.5537 9.0764 14.9114 9.49101 14.8623 9.95606L14.2677 15.5971C14.2187 16.0621 13.7815 16.4013 13.2915 16.3548C12.8013 16.3084 12.4437 15.8937 12.4928 15.4287L13.0873 9.78762C13.1364 9.32269 13.5735 8.98333 14.0636 9.02991Z" fill="#C4C4C4"/>
</g>
<defs>
<clipPath id="clip0_1039_23">
<rect width="22" height="22" fill="white"/>
</clipPath>
</defs>
</svg>
